<svg id="visual" viewBox="0 0 1920 1080" width="1920" height="1080" xmlns="http://www.w3.org/2000/svg" xmlns:xlink="http://www.w3.org/1999/xlink" version="1.1"><rect x="0" y="0" width="1920" height="1080" fill="#000000"></rect><defs><linearGradient id="grad1_0" x1="43.8%" y1="0%" x2="100%" y2="100%"><stop offset="14.444444444444446%" stop-color="#f9df28" stop-opacity="1"></stop><stop offset="85.55555555555554%" stop-color="#f9df28" stop-opacity="1"></stop></linearGradient></defs><defs><linearGradient id="grad1_1" x1="43.8%" y1="0%" x2="100%" y2="100%"><stop offset="14.444444444444446%" stop-color="#f9df28" stop-opacity="1"></stop><stop offset="85.55555555555554%" stop-color="#000000" stop-opacity="1"></stop></linearGradient></defs><defs><linearGradient id="grad2_0" x1="0%" y1="0%" x2="56.3%" y2="100%"><stop offset="14.444444444444446%" stop-color="#f9df28" stop-opacity="1"></stop><stop offset="85.55555555555554%" stop-color="#f9df28" stop-opacity="1"></stop></linearGradient></defs><defs><linearGradient id="grad2_1" x1="0%" y1="0%" x2="56.3%" y2="100%"><stop offset="14.444444444444446%" stop-color="#000000" stop-opacity="1"></stop><stop offset="85.55555555555554%" stop-color="#f9df28" stop-opacity="1"></stop></linearGradient></defs><g transform="translate(1920, 0)"><path d="M0 756C-39 724.9 -78 693.8 -102.8 648.9C-127.6 604 -138.1 545.2 -180.8 556.4C-223.4 567.5 -298.1 648.6 -317.8 623.7C-337.4 598.8 -302 468 -295.1 406.1C-288.1 344.3 -309.7 351.4 -379.7 379.7C-449.8 408.1 -568.3 457.7 -611.6 444.4C-654.9 431.1 -622.9 354.9 -575.6 293.3C-528.3 231.7 -465.6 184.7 -492.6 160.1C-519.7 135.4 -636.5 133.1 -695.3 110.1C-754.2 87.2 -755.1 43.6 -756 0L0 0Z" fill="#766a00"></path><path d="M0 378C-19.5 362.5 -39 346.9 -51.4 324.5C-63.8 302 -69.1 272.6 -90.4 278.2C-111.7 283.8 -149.1 324.3 -158.9 311.9C-168.7 299.4 -151 234 -147.5 203.1C-144.1 172.1 -154.8 175.7 -189.9 189.9C-224.9 204 -284.2 228.8 -305.8 222.2C-327.5 215.5 -311.5 177.4 -287.8 146.6C-264.1 115.8 -232.8 92.4 -246.3 80C-259.9 67.7 -318.2 66.5 -347.7 55.1C-377.1 43.6 -377.5 21.8 -378 0L0 0Z" fill="#f9df28"></path></g><g transform="translate(0, 1080)"><path d="M0 -756C30.7 -661.4 61.4 -566.9 81.5 -514.6C101.6 -462.3 111.1 -452.4 163.2 -502.2C215.3 -552 310 -661.5 325.1 -638C340.1 -614.4 275.5 -457.8 319.8 -440.1C364 -422.4 517 -543.7 520.4 -520.4C523.9 -497.2 377.8 -329.4 398.8 -289.8C419.9 -250.1 607.9 -338.6 673.6 -343.2C739.3 -347.8 682.5 -268.5 669.5 -217.5C656.6 -166.6 687.4 -143.9 709.2 -112.3C730.9 -80.8 743.4 -40.4 756 0L0 0Z" fill="#766a00"></path><path d="M0 -378C15.4 -330.7 30.7 -283.4 40.8 -257.3C50.8 -231.2 55.5 -226.2 81.6 -251.1C107.6 -276 155 -330.8 162.5 -319C170.1 -307.2 137.8 -228.9 159.9 -220.1C182 -211.2 258.5 -271.8 260.2 -260.2C261.9 -248.6 188.9 -164.7 199.4 -144.9C209.9 -125.1 304 -169.3 336.8 -171.6C369.6 -173.9 341.2 -134.3 334.8 -108.8C328.3 -83.3 343.7 -71.9 354.6 -56.2C365.4 -40.4 371.7 -20.2 378 0L0 0Z" fill="#f9df28"></path></g></svg>