<svg id="visual" viewBox="0 0 960 540" width="960" height="540" xmlns="http://www.w3.org/2000/svg" xmlns:xlink="http://www.w3.org/1999/xlink" version="1.1"><rect x="0" y="0" width="960" height="540" fill="#000000"></rect><defs><linearGradient id="grad1_0" x1="43.8%" y1="100%" x2="100%" y2="0%"><stop offset="14.444444444444446%" stop-color="#ffff01" stop-opacity="1"></stop><stop offset="85.55555555555554%" stop-color="#ffff01" stop-opacity="1"></stop></linearGradient></defs><defs><linearGradient id="grad1_1" x1="43.8%" y1="100%" x2="100%" y2="0%"><stop offset="14.444444444444446%" stop-color="#ffff01" stop-opacity="1"></stop><stop offset="85.55555555555554%" stop-color="#000000" stop-opacity="1"></stop></linearGradient></defs><defs><linearGradient id="grad2_0" x1="0%" y1="100%" x2="56.3%" y2="0%"><stop offset="14.444444444444446%" stop-color="#ffff01" stop-opacity="1"></stop><stop offset="85.55555555555554%" stop-color="#ffff01" stop-opacity="1"></stop></linearGradient></defs><defs><linearGradient id="grad2_1" x1="0%" y1="100%" x2="56.3%" y2="0%"><stop offset="14.444444444444446%" stop-color="#000000" stop-opacity="1"></stop><stop offset="85.55555555555554%" stop-color="#ffff01" stop-opacity="1"></stop></linearGradient></defs><g transform="translate(960, 540)"><path d="M-405 0C-370.7 -20.4 -336.3 -40.9 -333.5 -66.3C-330.6 -91.8 -359.2 -122.3 -364 -150.8C-368.8 -179.3 -349.8 -205.8 -312.6 -208.9C-275.5 -212 -220.2 -191.6 -198 -198C-175.8 -204.4 -186.7 -237.5 -187.8 -281C-188.8 -324.5 -180 -378.4 -155 -374.2C-130 -369.9 -88.8 -307.6 -60.3 -303.1C-31.8 -298.5 -15.9 -351.8 0 -405L0 0Z" fill="#6e7b00"></path><path d="M-202.5 0C-185.3 -10.2 -168.2 -20.4 -166.7 -33.2C-165.3 -45.9 -179.6 -61.1 -182 -75.4C-184.4 -89.6 -174.9 -102.9 -156.3 -104.4C-137.7 -106 -110.1 -95.8 -99 -99C-87.9 -102.2 -93.4 -118.8 -93.9 -140.5C-94.4 -162.3 -90 -189.2 -77.5 -187.1C-65 -185 -44.4 -153.8 -30.1 -151.5C-15.9 -149.3 -7.9 -175.9 0 -202.5L0 0Z" fill="#ffff01"></path></g><g transform="translate(0, 0)"><path d="M405 0C376 26 346.9 52 303.1 60.3C259.2 68.5 200.5 59 216.2 89.5C231.8 120.1 321.8 190.7 336.7 225C351.7 259.3 291.7 257.3 248.9 248.9C206.1 240.5 180.4 225.7 171.7 256.9C163 288.2 171.3 365.5 152.7 368.6C134.1 371.7 88.5 300.6 58.5 294.2C28.6 287.9 14.3 346.5 0 405L0 0Z" fill="#6e7b00"></path><path d="M202.5 0C188 13 173.5 26 151.5 30.1C129.6 34.3 100.3 29.5 108.1 44.8C115.9 60 160.9 95.4 168.4 112.5C175.9 129.7 145.9 128.7 124.5 124.5C103 120.2 90.2 112.8 85.8 128.5C81.5 144.1 85.7 182.8 76.3 184.3C67 185.9 44.2 150.3 29.3 147.1C14.3 144 7.1 173.2 0 202.5L0 0Z" fill="#ffff01"></path></g></svg>