<svg id="visual" viewBox="0 0 960 540" width="960" height="540" xmlns="http://www.w3.org/2000/svg" xmlns:xlink="http://www.w3.org/1999/xlink" version="1.1"><rect x="0" y="0" width="960" height="540" fill="#000000"></rect><defs><linearGradient id="grad1_0" x1="43.8%" y1="0%" x2="100%" y2="100%"><stop offset="14.444444444444446%" stop-color="#ffff01" stop-opacity="1"></stop><stop offset="85.55555555555554%" stop-color="#ffff01" stop-opacity="1"></stop></linearGradient></defs><defs><linearGradient id="grad1_1" x1="43.8%" y1="0%" x2="100%" y2="100%"><stop offset="14.444444444444446%" stop-color="#ffff01" stop-opacity="1"></stop><stop offset="85.55555555555554%" stop-color="#000000" stop-opacity="1"></stop></linearGradient></defs><defs><linearGradient id="grad2_0" x1="0%" y1="0%" x2="56.3%" y2="100%"><stop offset="14.444444444444446%" stop-color="#ffff01" stop-opacity="1"></stop><stop offset="85.55555555555554%" stop-color="#ffff01" stop-opacity="1"></stop></linearGradient></defs><defs><linearGradient id="grad2_1" x1="0%" y1="0%" x2="56.3%" y2="100%"><stop offset="14.444444444444446%" stop-color="#000000" stop-opacity="1"></stop><stop offset="85.55555555555554%" stop-color="#ffff01" stop-opacity="1"></stop></linearGradient></defs><g transform="translate(960, 0)"><path d="M0 405C-20.4 370.7 -40.9 336.3 -66.3 333.5C-91.8 330.6 -122.3 359.2 -150.8 364C-179.3 368.8 -205.8 349.8 -208.9 312.6C-212 275.5 -191.6 220.2 -198 198C-204.4 175.8 -237.5 186.7 -281 187.8C-324.5 188.8 -378.4 180 -374.2 155C-369.9 130 -307.6 88.8 -303.1 60.3C-298.5 31.8 -351.8 15.9 -405 0L0 0Z" fill="#6e7b00"></path><path d="M0 202.5C-10.2 185.3 -20.4 168.2 -33.2 166.7C-45.9 165.3 -61.1 179.6 -75.4 182C-89.6 184.4 -102.9 174.9 -104.4 156.3C-106 137.7 -95.8 110.1 -99 99C-102.2 87.9 -118.8 93.4 -140.5 93.9C-162.3 94.4 -189.2 90 -187.1 77.5C-185 65 -153.8 44.4 -151.5 30.1C-149.3 15.9 -175.9 7.9 -202.5 0L0 0Z" fill="#ffff01"></path></g><g transform="translate(0, 540)"><path d="M0 -405C26 -376 52 -346.9 60.3 -303.1C68.5 -259.2 59 -200.5 89.5 -216.2C120.1 -231.8 190.7 -321.8 225 -336.7C259.3 -351.7 257.3 -291.7 248.9 -248.9C240.5 -206.1 225.7 -180.4 256.9 -171.7C288.2 -163 365.5 -171.3 368.6 -152.7C371.7 -134.1 300.6 -88.5 294.2 -58.5C287.9 -28.6 346.5 -14.3 405 0L0 0Z" fill="#6e7b00"></path><path d="M0 -202.5C13 -188 26 -173.5 30.1 -151.5C34.3 -129.6 29.5 -100.3 44.8 -108.1C60 -115.9 95.4 -160.9 112.5 -168.4C129.7 -175.9 128.7 -145.9 124.5 -124.5C120.2 -103 112.8 -90.2 128.5 -85.8C144.1 -81.5 182.8 -85.7 184.3 -76.3C185.9 -67 150.3 -44.2 147.1 -29.3C144 -14.3 173.2 -7.1 202.5 0L0 0Z" fill="#ffff01"></path></g></svg>